# xmcd CD database file
#
# Track frame offsets:
#	150
#	17087
#	33710
#	54535
#	68437
#	86583
#	98443
#	115527
#	134927
#	153913
#	183954
#	210809
#	239604
#	267753
#
# Disc length: 3892 seconds
#
# Revision: 0
# Processed by: cddbd v1.5.2PL0 Copyright (c) Steve Scherf et al.
# Submitted via: CDex 1.70beta2
#
DISCID=b10f320e
DTITLE=Eric Bibb - An Evening With Eric Bibb
DYEAR=2007
DGENRE=Blues
TTITLE0=Good Stuff
TTITLE1=Shingle by Shingle
TTITLE2=Needed Time
TTITLE3=Lonesome Valley
TTITLE4=Don't Ever Let Your Spirit Down
TTITLE5=Sebastian's Tune
TTITLE6=Got to Do Better
TTITLE7=Panama Hat
TTITLE8=To Know You is to Love You
TTITLE9=No More on the Brazos
TTITLE10=Right on Time
TTITLE11=For You
TTITLE12=In My Father's House
TTITLE13=I Heard the Angels Singing
EXTD=YEAR: 2007
EXTT0=
EXTT1=
EXTT2=
EXTT3=
EXTT4=
EXTT5=
EXTT6=
EXTT7=
EXTT8=
EXTT9=
EXTT10=
EXTT11=
EXTT12=
EXTT13=
PLAYORDER=
